REM DIRINDEX 1\3,1\5,1\6,1\2\7,1\2\8,1\4\9,1\4\10
REM DIRNAME folder01,folder02,folder03,folder04,folder05,folder06,folder07,folder08,folder09,folder10
TITLE ""
FILE "CD2Track01.mp3" MP3
  TRACK 01 AUDIO
    TITLE "9:cjc060_0694"
    INDEX 01 00:00:00
  TRACK 02 AUDIO
    TITLE "10:cjc060_0695"
    INDEX 01 00:01:26
  TRACK 03 AUDIO
    TITLE "9:cjc060_0696"
    INDEX 01 00:03:74
  TRACK 04 AUDIO
    TITLE "10:cjc060_0697"
    INDEX 01 00:05:22
  TRACK 05 AUDIO
    TITLE "9:cjc060_0698"
    INDEX 01 00:08:11
  TRACK 06 AUDIO
    TITLE "10:cjc060_0699"
    INDEX 01 00:09:44
  TRACK 07 AUDIO
    TITLE "9:cjc060_0700"
    INDEX 01 00:12:56
  TRACK 08 AUDIO
    TITLE "10:cjc060_0701"
    INDEX 01 00:14:11
  TRACK 09 AUDIO
    TITLE "10:cjc060_0702"
    INDEX 01 00:17:00
  TRACK 10 AUDIO
    TITLE "9:cjc060_0703"
    INDEX 01 00:20:49
  TRACK 11 AUDIO
    TITLE "10:cjc060_0704"
    INDEX 01 00:21:72
  TRACK 12 AUDIO
    TITLE "9:cjc060_0705"
    INDEX 01 00:25:29
  TRACK 13 AUDIO
    TITLE "10:cjc060_0706"
    INDEX 01 00:26:52
  TRACK 14 AUDIO
    TITLE "9:cjc060_0707"
    INDEX 01 00:29:64
  TRACK 15 AUDIO
    TITLE "10:cjc060_0708"
    INDEX 01 00:31:14
  TRACK 16 AUDIO
    TITLE "9:cjc060_0709"
    INDEX 01 00:34:42
  TRACK 17 AUDIO
    TITLE "10:cjc060_0710"
    INDEX 01 00:35:66
  TRACK 18 AUDIO
    TITLE "9:cjc060_0711"
    INDEX 01 00:39:31
  TRACK 19 AUDIO
    TITLE "10:cjc060_0712"
    INDEX 01 00:40:60
  TRACK 20 AUDIO
    TITLE "9:cjc060_0713"
    INDEX 01 00:45:45
  TRACK 21 AUDIO
    TITLE "10:cjc060_0714"
    INDEX 01 00:46:70
  TRACK 22 AUDIO
    TITLE "9:cjc060_0715"
    INDEX 01 00:51:26
  TRACK 23 AUDIO
    TITLE "10:cjc060_0716"
    INDEX 01 00:52:55
  TRACK 24 AUDIO
    TITLE "9:cjc060_0717"
    INDEX 01 00:56:04
  TRACK 25 AUDIO
    TITLE "10:cjc060_0718"
    INDEX 01 00:57:39
  TRACK 26 AUDIO
    TITLE "9:cjc060_0719"
    INDEX 01 01:00:74
  TRACK 27 AUDIO
    TITLE "10:cjc060_0720"
    INDEX 01 01:02:18
  TRACK 28 AUDIO
    TITLE "9:cjc060_0721"
    INDEX 01 01:06:34
  TRACK 29 AUDIO
    TITLE "10:cjc060_0722"
    INDEX 01 01:07:47
  TRACK 30 AUDIO
    TITLE "9:cjc060_0723"
    INDEX 01 01:11:47
  TRACK 31 AUDIO
    TITLE "10:cjc060_0724"
    INDEX 01 01:12:60
  TRACK 32 AUDIO
    TITLE "9:cjc060_0725"
    INDEX 01 01:16:46
  TRACK 33 AUDIO
    TITLE "10:cjc060_0726"
    INDEX 01 01:17:57
  TRACK 34 AUDIO
    TITLE "9:cjc060_0727"
    INDEX 01 01:21:39
  TRACK 35 AUDIO
    TITLE "10:cjc060_0728"
    INDEX 01 01:22:64
  TRACK 36 AUDIO
    TITLE "9:cjc060_0729"
    INDEX 01 01:26:05
  TRACK 37 AUDIO
    TITLE "10:cjc060_0730"
    INDEX 01 01:27:34
  TRACK 38 AUDIO
    TITLE "9:cjc060_0731"
    INDEX 01 01:30:38
  TRACK 39 AUDIO
    TITLE "10:cjc060_0732"
    INDEX 01 01:31:55
  TRACK 40 AUDIO
    TITLE "9:cjc060_0733"
    INDEX 01 01:36:64
  TRACK 41 AUDIO
    TITLE "10:cjc060_0734"
    INDEX 01 01:38:40
  TRACK 42 AUDIO
    TITLE "9:cjc060_0735"
    INDEX 01 01:42:30
  TRACK 43 AUDIO
    TITLE "10:cjc060_0736"
    INDEX 01 01:43:52
  TRACK 44 AUDIO
    TITLE "9:cjc060_0737"
    INDEX 01 01:46:51
  TRACK 45 AUDIO
    TITLE "10:cjc060_0738"
    INDEX 01 01:48:03
  TRACK 46 AUDIO
    TITLE "9:cjc060_0739"
    INDEX 01 01:52:53
  TRACK 47 AUDIO
    TITLE "10:cjc060_0740"
    INDEX 01 01:54:05
  TRACK 48 AUDIO
    TITLE "9:cjc060_0741"
    INDEX 01 01:56:71
  TRACK 49 AUDIO
    TITLE "10:cjc060_0742"
    INDEX 01 01:58:11
  TRACK 50 AUDIO
    TITLE "9:cjc060_0743"
    INDEX 01 02:01:35
  TRACK 51 AUDIO
    TITLE "10:cjc060_0744"
    INDEX 01 02:02:71
  TRACK 52 AUDIO
    TITLE "9:cjc060_0745"
    INDEX 01 02:06:67
  TRACK 53 AUDIO
    TITLE "10:cjc060_0746"
    INDEX 01 02:08:21
  TRACK 54 AUDIO
    TITLE "9:cjc060_0747"
    INDEX 01 02:13:40
  TRACK 55 AUDIO
    TITLE "10:cjc060_0748"
    INDEX 01 02:14:63
  TRACK 56 AUDIO
    TITLE "9:cjc060_0749"
    INDEX 01 02:18:18
  TRACK 57 AUDIO
    TITLE "10:cjc060_0750"
    INDEX 01 02:19:44
  TRACK 58 AUDIO
    TITLE "9:cjc060_0751"
    INDEX 01 02:23:64
  TRACK 59 AUDIO
    TITLE "10:cjc060_0752"
    INDEX 01 02:25:21
  TRACK 60 AUDIO
    TITLE "9:cjc060_0753"
    INDEX 01 02:28:51
  TRACK 61 AUDIO
    TITLE "10:cjc060_0754"
    INDEX 01 02:30:05
  TRACK 62 AUDIO
    TITLE "9:cjc060_0755"
    INDEX 01 02:33:41
  TRACK 63 AUDIO
    TITLE "10:cjc060_0756"
    INDEX 01 02:34:62
  TRACK 64 AUDIO
    TITLE "9:cjc060_0757"
    INDEX 01 02:38:22
  TRACK 65 AUDIO
    TITLE "10:cjc060_0758"
    INDEX 01 02:39:49
  TRACK 66 AUDIO
    TITLE "9:cjc060_0759"
    INDEX 01 02:43:49
  TRACK 67 AUDIO
    TITLE "10:cjc060_0760"
    INDEX 01 02:45:01
  TRACK 68 AUDIO
    TITLE "0:"
    INDEX 01 02:48:01
